<?xml version="1.0" encoding="utf-8"?>
<!-- Generator: Adobe Illustrator 18.0.0, SVG Export Plug-In . SVG Version: 6.00 Build 0)  -->
<!DOCTYPE svg PUBLIC "-//W3C//DTD SVG 1.1//EN" "http://www.w3.org/Graphics/SVG/1.1/DTD/svg11.dtd">
<svg version="1.1" id="Calque_1" xmlns="http://www.w3.org/2000/svg" xmlns:xlink="http://www.w3.org/1999/xlink" x="0px" y="0px"
	 viewBox="0 0 56 22" enable-background="new 0 0 56 22" xml:space="preserve">
<g>
	<g>
		<path fill="none" d="M49.1,5c1,0,1.9,0.1,2.7,0.3c0.3-3.9-6.1-4.1-5.8,0.2C47,5.2,48,5,49.1,5z"/>
		<path fill="none" d="M34,8.7c-1.9,0-3.1,1.4-3.5,3.4h6.9C37.2,10.1,36,8.7,34,8.7z"/>
		<path fill="#FFFFFF" d="M53,16.2c-1.1,1.1-2.2,1.7-3.7,1.7c-2.5,0-4.1-2-4.1-4.5v-0.1c0-2.4,1.6-4.4,3.9-4.4
			c1.6,0,2.7,0.7,3.7,1.8l2.8-3c-0.4-0.5-0.9-0.9-1.4-1.3c0-0.8,0.2-1.6,0.1-2.3c-0.4-2.7-3-4.5-5.7-4.3c-2.6,0.2-4,1.5-4.6,3.1
			c-0.5,1.1-0.1,2.5-0.2,4c-1,0.9-1.8,2-2.4,3.2C40.3,7.2,37.9,5,34,5c-4.5,0-7.8,3.5-8,7.9c-1-0.7-2.2-1.2-3.3-1.6
			c-1.9-0.6-3.5-1.1-3.5-2.1V9.3c0-0.7,0.6-1.2,1.8-1.2c1.3,0,3,0.6,4.7,1.6l1.9-3.4c-1.9-1.3-4.2-2-6.4-2c-2.6,0-4.8,1.1-5.8,3.1
			c0.5,0.9,0.8,2.1,0.8,3.5v2.1c1,1,2.5,1.5,3.8,1.9c1.9,0.6,3.6,0.9,3.6,2v0.1c0,0.8-0.6,1.3-2.1,1.3c-1.6,0-3.5-0.7-5.3-2v4.5
			c1.7,0.8,3.5,1.2,5.2,1.2c3,0,5.4-1.1,6.3-3.6c1.5,2.1,4,3.3,6.9,3.3c2.9,0,5.1-1.1,6.6-3l-2.6-2.3c-1.3,1.2-2.4,1.7-3.9,1.7
			c-2.1,0-3.5-1.1-4-3.2h10.2c0.7,3.9,4,6.8,8.3,6.8c3.2,0,5-1.2,6.6-3L53,16.2z M51.8,5.4C51,5.1,50.1,5,49.1,5C48,5,47,5.2,46,5.6
			C45.7,1.3,52.1,1.5,51.8,5.4z M30.5,12.2c0.4-2.1,1.6-3.4,3.5-3.4c1.9,0,3.1,1.4,3.4,3.4H30.5z"/>
	</g>
	<path fill="#1C75BC" d="M10.5,21.5v-9c0-2.2-1-3.3-2.8-3.3c-1.7,0-2.9,1.1-2.9,3.3v9H0.3V6.6l4.6-2.3v3.4C5.9,6.3,7.3,5,9.6,5
		c3.5,0,5.5,2.3,5.5,6v10.5H10.5z"/>
</g>
</svg>
