<?xml version="1.0" encoding="utf-8"?>
<!-- Generator: Adobe Illustrator 19.2.1, SVG Export Plug-In . SVG Version: 6.00 Build 0)  -->
<svg version="1.1" id="Calque_1" xmlns="http://www.w3.org/2000/svg" xmlns:xlink="http://www.w3.org/1999/xlink" x="0px" y="0px"
	 viewBox="0 0 100 50" enable-background="new 0 0 100 50" xml:space="preserve">
<g>
	<path d="M42.4,37v-2.6h0.5V37H42.4z"/>
	<path d="M50.4,37l-1-1.6V37h-0.5v-2.6h0.4l1,1.6v-1.6h0.5V37H50.4z"/>
	<path d="M57.8,34.9V37h-0.5v-2.1h-0.7v-0.4h1.8v0.4H57.8z"/>
	<path d="M64.3,37v-2.6h1.7v0.4h-1.2v0.6h1v0.4h-1v0.6h1.2V37H64.3z"/>
	<path d="M73.2,37l-0.5-1h-0.4v1h-0.5v-2.6h1c0.5,0,0.8,0.4,0.8,0.8c0,0.4-0.2,0.6-0.5,0.7l0.6,1.1H73.2z M72.8,34.9h-0.5v0.7h0.5
		c0.2,0,0.4-0.1,0.4-0.3C73.1,35,73,34.9,72.8,34.9z"/>
	<path d="M81,37l-1-1.6V37h-0.5v-2.6H80l1,1.6v-1.6h0.5V37H81z"/>
	<path d="M87.5,37v-2.6h1.7v0.4H88v0.6h1v0.4h-1v0.6h1.2V37H87.5z"/>
	<path d="M96,34.9V37h-0.5v-2.1h-0.7v-0.4h1.8v0.4H96z"/>
</g>
<g>
	<path fill="#00A1E4" stroke="#00A1E4" stroke-width="0.3025" d="M20.1,17.6c-3.6,0-6.5,3-6.5,6.7c0,0.1,0,0.2,0,0.3v12.4h1.6v-8.3
		c1.2,1.4,2.9,2.3,4.9,2.3c3.6,0,6.5-3,6.5-6.7C26.6,20.5,23.7,17.6,20.1,17.6z M20.1,29.3c-2.7,0-4.9-2.3-4.9-5.1
		c0-2.8,2.2-5.1,4.9-5.1c2.7,0,4.9,2.3,4.9,5.1C25,27,22.8,29.3,20.1,29.3z"/>
	<path fill="#00A1E4" stroke="#00A1E4" stroke-width="0.3025" d="M99.9,23.1l-11,2.9c0.4,1.3,1.2,2.2,2.3,2.8
		c1.1,0.6,2.3,0.7,3.6,0.4c0.9-0.2,1.7-0.7,2.3-1.4c0.6-0.7,1-1.5,1.2-2.4l1.8-0.5c-0.2,1.5-0.7,2.7-1.5,3.7c-0.8,1-1.9,1.7-3.2,2
		c-1.8,0.5-3.4,0.2-5-0.7c-1.6-0.9-2.6-2.3-3-4.1c-0.5-1.9-0.3-3.5,0.6-5.1c0.9-1.5,2.2-2.5,4.1-3c1.8-0.5,3.5-0.2,5,0.7
		c1.5,1,2.5,2.4,3,4.5L99.9,23.1z M97.8,22.2c-0.7-1.3-1.5-2.2-2.4-2.6c-1-0.5-2.1-0.5-3.4-0.2c-1.2,0.3-2.1,0.9-2.7,1.9
		c-0.6,1-0.9,2.1-0.7,3.4L97.8,22.2z"/>
	<path fill="#00A1E4" stroke="#00A1E4" stroke-width="0.3025" d="M0,24.2c0-1.8,0.6-3.4,1.9-4.7c1.3-1.3,2.8-2,4.5-2
		c1.8,0,3.4,0.7,4.7,1.9c1.3,1.3,1.9,2.8,1.9,4.6c0,1.9-0.6,3.5-1.9,4.8c-1.3,1.3-2.8,2-4.6,2c-1.8,0-3.4-0.7-4.6-2
		C0.6,27.6,0,26,0,24.2z M1.7,24.2c0,1.4,0.5,2.7,1.4,3.6c0.9,1,2.1,1.5,3.4,1.5c1.3,0,2.5-0.5,3.4-1.5c0.9-1,1.4-2.2,1.4-3.7
		c0-1.5-0.5-2.7-1.4-3.7c-0.9-1-2.1-1.4-3.5-1.4c-1.3,0-2.4,0.5-3.3,1.5C2.2,21.5,1.7,22.8,1.7,24.2z"/>
	<path fill="#00A1E4" stroke="#00A1E4" stroke-width="0.3025" d="M40.4,23.1l-11,2.9c0.4,1.3,1.2,2.2,2.3,2.8
		c1.1,0.6,2.3,0.7,3.6,0.4c0.9-0.2,1.7-0.7,2.3-1.4c0.6-0.7,1-1.5,1.2-2.4l1.8-0.5c-0.2,1.5-0.7,2.7-1.5,3.7c-0.8,1-1.9,1.7-3.2,2
		c-1.8,0.5-3.4,0.2-5-0.7c-1.6-0.9-2.6-2.3-3-4.1c-0.5-1.8-0.3-3.5,0.6-5.1c0.9-1.5,2.2-2.5,4.1-3c1.8-0.5,3.5-0.2,5,0.7
		c1.5,1,2.5,2.4,3,4.5L40.4,23.1z M38.3,22.2c-0.7-1.3-1.5-2.1-2.4-2.6c-1-0.5-2.1-0.5-3.4-0.2c-1.2,0.3-2.1,0.9-2.7,1.9
		c-0.6,1-0.9,2.1-0.7,3.4L38.3,22.2z"/>
	<path fill="#00A1E4" stroke="#00A1E4" stroke-width="0.3025" d="M84.4,21.8c-0.5-0.9-1.1-1.6-1.8-2c-0.7-0.4-1.6-0.7-2.5-0.7
		c-1.3,0-2.4,0.5-3.3,1.5c-0.9,1-1.4,2.2-1.4,3.6c0,1.4,0.4,2.7,1.4,3.6c0.9,1,2,1.5,3.4,1.5c1,0,1.8-0.2,2.6-0.7
		c0.7-0.5,1.3-1.2,1.7-2l1.8,0c-0.5,1.4-1.3,2.4-2.3,3.2c-1,0.7-2.3,1.1-3.7,1.1c-1.8,0-3.4-0.7-4.6-2c-1.3-1.3-1.9-2.9-1.9-4.7
		c0-1.9,0.6-3.4,1.9-4.7c1.3-1.3,2.8-1.9,4.6-1.9c1.4,0,2.6,0.4,3.6,1.1c1,0.7,1.8,1.8,2.3,3.1L84.4,21.8z"/>
	<path fill="#00A1E4" stroke="#00A1E4" stroke-width="0.3025" d="M72.9,24.2c0-3.7-2.9-6.7-6.5-6.7c-3.6,0-6.5,3-6.5,6.7
		c0,3.7,2.9,6.7,6.5,6.7c1.9,0,3.7-0.9,4.9-2.3v2.3h1.6v-6.4C72.9,24.4,72.9,24.3,72.9,24.2z M66.4,29.3c-2.7,0-4.9-2.3-4.9-5.1
		c0-2.8,2.2-5.1,4.9-5.1c2.7,0,4.9,2.3,4.9,5.1C71.3,27.1,69.1,29.3,66.4,29.3z"/>
	<path fill="#00A1E4" stroke="#00A1E4" stroke-width="0.3025" d="M46.8,17.6c-3.1,0-5.6,2.5-5.6,5.6v6.6v0.1v1.1h1.7v-1.1v-0.1v-6.5
		c0-2.3,1.8-4.1,3.9-4.1c2.2,0,3.9,1.9,3.9,4.1v6.5v0.1v1.1h1.7v-1.1v-0.1v-6.6C52.5,20.1,49.9,17.6,46.8,17.6z"/>
	<path fill="#00A1E4" stroke="#00A1E4" stroke-width="0.3025" d="M57.1,17.4l0-0.5c0-0.9,0.2-1.4,0.6-1.8c0.4-0.4,1.1-0.6,2.2-0.6
		l0-1.5l-0.1,0c-1.5,0-2.6,0.3-3.3,1c-0.7,0.7-1.2,1.7-1.2,3.1l0,0.3h-1.2l-0.6,0v0h-0.9V19h2.8l0,0l0,0.1V31h1.8l0-11.5v0V19l2.8,0
		v-1.6H57.1z"/>
</g>
</svg>
